# xmcd CD database file generated by Grip 3.2.0
# 
# Track frame offsets:
#       150
#       13520
#       26170
#       38732
#       54822
#       73340
#       83555
#       104615
#       119157
#       129325
#       142815
#       158242
# 
# Disc length: 2411 seconds
# 
# Revision: 3
# Processed by: cddbd v1.5.2PL0 Copyright (c) Steve Scherf et al.
# Submitted via: Grip 3.2.0
# 
DISCID=9d09690c
DTITLE=Various Artist - Louisiana Cajun Classics
DYEAR=1988
DGENRE=Country
TTITLE0=Balfa Brothers - Jolie Blonde
TTITLE1=Balfa Brothers - Two Step De Lacassine
TTITLE2=Dewey Balfa - La Valse De Deux Familles
TTITLE3=Beausoleil - Hommage Aux Freres Balfa
TTITLE4=Beausoleil - Pot-Pourri Cadjin
TTITLE5=Doug Kershaw - Jambalaya
TTITLE6=Buckwheat Zydeco - Buck's Nouvelle Jole Blon
TTITLE7=Clifton Chenier - Zydeco Sont Pas Sale
TTITLE8=Rockin Sidney - Two Steppin The Two Step
TTITLE9=Beausoleil - Zydeco Gris Gris
TTITLE10=Zachary Richard - Joe Pitre
TTITLE11=Zachary Richard - Jambalaya
EXTD=
EXTT0=BB
EXTT1=BB
EXTT2=DB
EXTT3=B
EXTT4=B
EXTT5=B
EXTT6=BZ
EXTT7=CC
EXTT8=RS
EXTT9=B
EXTT10=B
EXTT11=ZR
PLAYORDER=
